<?xml version="1.0" encoding="utf-8"?>
<!-- Generator: Adobe Illustrator 22.1.0, SVG Export Plug-In . SVG Version: 6.00 Build 0)  -->
<svg version="1.1" id="Layer_1" xmlns="http://www.w3.org/2000/svg" xmlns:xlink="http://www.w3.org/1999/xlink" x="0px" y="0px"
	 viewBox="0 0 256 256" style="enable-background:new 0 0 256 256;" xml:space="preserve">
<style type="text/css">
	.st0{opacity:0.4;fill:#FFFFFF;}
	.st1{opacity:0.6;fill:#FFFFFF;}
	.st2{fill:#FFFFFF;}
</style>
<title>ghost_1b</title>
<circle class="st0" cx="89.9" cy="99.8" r="21.1"/>
<circle class="st1" cx="164.1" cy="99.8" r="21.1"/>
<path class="st2" d="M229.3,94.4L202,39.1l-73.5-26.2L51,41.6L26.3,97.3l-1.1,145.5l49.1-43.7l54.2,42.2l54.6-42.2l48.7,44
	L229.3,94.4z M89.9,120.9c-11.7,0-21.1-9.4-21.1-21.1s9.4-21.1,21.1-21.1c11.7,0,21.1,9.4,21.1,21.1S101.6,120.9,89.9,120.9z
	 M164.1,120.9c-11.7,0-21.1-9.4-21.1-21.1s9.4-21.1,21.1-21.1c11.7,0,21.1,9.4,21.1,21.1S175.8,120.9,164.1,120.9z"/>
</svg>
